<?xml version="1.0" standalone="no"?>
<!DOCTYPE svg PUBLIC "-//W3C//DTD SVG 20010904//EN"
 "http://www.w3.org/TR/2001/REC-SVG-20010904/DTD/svg10.dtd">
<svg version="1.0" xmlns="http://www.w3.org/2000/svg"
 width="1520.000000pt" height="1520.000000pt" viewBox="0 0 1520.000000 1520.000000"
 preserveAspectRatio="xMidYMid meet">
<metadata>
Created by potrace 1.11, written by Peter Selinger 2001-2013
</metadata>
<g transform="translate(0.000000,1520.000000) scale(0.100000,-0.100000)"
fill="#000000" stroke="none">
<path d="M8825 11842 c-2 -2 -26 -6 -52 -8 -26 -2 -55 -5 -63 -7 -8 -2 -37 -7
-65 -12 -27 -4 -54 -10 -60 -13 -5 -4 -18 -8 -27 -9 -31 -5 -203 -66 -225 -80
-12 -8 -28 -16 -35 -17 -7 -1 -24 -8 -38 -16 -14 -8 -30 -15 -36 -16 -6 -1
-29 -14 -52 -28 -23 -14 -46 -26 -52 -26 -5 0 -10 -5 -10 -12 0 -6 -3 -9 -6
-5 -3 3 -31 -10 -62 -30 -120 -75 -167 -107 -170 -115 -2 -4 -9 -8 -16 -8 -7
0 -21 -8 -32 -17 -10 -10 -55 -45 -99 -77 -114 -85 -289 -233 -377 -318 -27
-27 -51 -48 -53 -48 -6 0 -334 -330 -403 -406 -35 -38 -97 -105 -137 -149
-112 -122 -134 -146 -173 -194 -21 -25 -50 -59 -65 -75 -52 -57 -73 -81 -123
-141 -27 -33 -51 -62 -54 -65 -3 -3 -34 -41 -69 -85 -36 -44 -69 -84 -76 -90
-6 -5 -46 -55 -89 -109 -43 -54 -85 -106 -92 -115 -7 -9 -37 -45 -65 -81 -28
-36 -55 -67 -59 -70 -4 -3 -11 -12 -16 -21 -10 -19 -71 -95 -96 -121 -10 -10
-18 -21 -18 -24 0 -3 -6 -11 -12 -19 -7 -7 -44 -54 -83 -105 -38 -51 -85 -108
-102 -128 -18 -20 -33 -39 -33 -43 0 -4 -6 -14 -13 -21 -7 -7 -40 -49 -73 -93
-32 -44 -64 -84 -70 -90 -6 -5 -33 -39 -59 -75 -47 -62 -122 -162 -172 -225
-36 -46 -35 -45 -92 -120 -30 -38 -57 -71 -62 -73 -5 -2 -9 -8 -9 -14 0 -5
-20 -35 -45 -66 -26 -31 -55 -68 -65 -82 -11 -14 -41 -52 -67 -86 -26 -33 -57
-73 -68 -88 -11 -16 -25 -33 -30 -40 -6 -6 -42 -51 -80 -101 -38 -49 -90 -115
-115 -146 -25 -31 -56 -71 -70 -89 -14 -17 -32 -40 -40 -51 -8 -10 -33 -21
-55 -24 -22 -2 -51 -7 -65 -10 -25 -5 -55 -10 -145 -20 -27 -3 -66 -8 -85 -11
-338 -42 -803 -35 -1110 16 -30 5 -71 12 -90 15 -19 3 -46 8 -60 10 -14 3 -35
7 -48 10 -13 2 -32 7 -42 10 -10 3 -27 8 -37 10 -73 15 -284 75 -328 94 -11 5
-47 19 -80 32 -234 88 -485 231 -649 369 -37 31 -176 169 -196 196 -81 103
-146 225 -167 317 -15 62 -8 179 12 222 23 48 130 157 174 176 17 8 31 18 31
22 0 5 4 6 9 2 5 -3 12 -1 16 5 3 5 16 10 28 10 15 0 18 3 10 11 -11 11 -113
13 -168 4 -156 -29 -315 -108 -417 -208 -111 -110 -218 -315 -223 -430 -2 -36
18 -142 32 -177 3 -8 7 -21 9 -28 1 -8 14 -38 28 -68 63 -133 189 -288 314
-385 37 -29 74 -59 82 -67 39 -36 200 -130 338 -198 85 -42 159 -77 165 -78 7
-1 17 -4 22 -7 6 -4 42 -17 80 -29 39 -12 76 -28 84 -34 8 -6 17 -10 20 -9 3
1 35 -6 71 -17 129 -38 320 -83 405 -96 17 -3 50 -9 75 -14 25 -5 68 -12 95
-16 28 -3 61 -8 75 -10 34 -4 135 -15 190 -20 159 -14 480 -22 480 -12 0 4 11
3 24 -2 13 -5 26 -7 28 -4 3 2 65 7 139 10 136 6 159 7 309 18 96 8 125 12
139 20 5 4 12 2 16 -4 4 -6 13 -7 23 -2 9 5 35 10 57 11 22 1 48 4 58 7 24 8
21 -6 -11 -42 -15 -17 -47 -55 -72 -84 -25 -29 -56 -65 -70 -79 -14 -15 -51
-58 -84 -97 -90 -106 -158 -184 -194 -221 -17 -19 -32 -37 -32 -40 0 -2 -13
-19 -29 -36 -16 -18 -48 -52 -71 -77 -23 -25 -68 -73 -98 -108 -328 -371 -812
-860 -1072 -1082 -14 -12 -36 -31 -50 -44 -14 -12 -68 -55 -120 -96 -52 -41
-96 -78 -98 -82 -2 -5 -10 -8 -17 -8 -7 0 -15 -4 -17 -8 -10 -23 -77 -54 -191
-87 -71 -20 -136 -38 -145 -40 -9 -2 -29 -8 -44 -14 -16 -6 -28 -9 -28 -6 0 2
-20 -4 -45 -15 -25 -11 -45 -17 -45 -15 0 4 -287 -91 -365 -122 -48 -18 -48
-19 -200 -82 -107 -44 -276 -123 -330 -154 -184 -107 -174 -101 -265 -168
-161 -120 -259 -260 -262 -376 -5 -179 113 -375 316 -527 56 -42 150 -95 151
-85 1 2 12 -3 25 -12 14 -8 37 -16 53 -17 l27 -2 -22 31 c-72 96 30 269 268
454 29 22 60 46 70 52 11 7 45 30 76 52 71 49 226 141 237 141 5 0 11 4 13 8
5 11 254 136 377 189 58 25 122 53 141 61 19 9 38 15 43 14 4 -1 7 2 7 8 0 6
3 9 8 8 4 -1 23 4 42 11 19 8 37 14 40 15 3 1 19 6 35 13 37 14 64 22 70 23 3
0 18 6 34 14 16 9 86 34 157 56 71 23 138 45 149 50 45 19 114 38 119 32 3 -3
6 0 6 7 0 7 5 9 10 6 6 -4 17 -1 25 5 8 7 15 10 15 6 0 -3 11 -1 25 4 43 16
415 113 485 126 14 3 61 13 105 24 44 10 100 21 125 25 24 4 47 8 50 10 3 2
21 6 40 9 19 3 46 8 60 11 14 3 41 8 60 11 46 7 80 13 105 18 11 2 40 7 65 11
25 4 54 9 65 11 11 2 40 7 65 10 25 3 54 7 65 9 11 2 43 6 70 9 28 3 61 8 75
11 27 4 83 11 168 20 28 3 76 8 105 11 85 9 137 14 222 20 44 2 103 6 130 8
293 22 994 28 1285 13 286 -16 267 -15 475 -32 101 -9 245 -23 300 -30 17 -2
51 -7 78 -10 26 -3 68 -8 94 -11 26 -4 57 -7 69 -9 41 -4 44 -13 22 -63 -31
-70 -39 -116 -43 -232 -5 -136 4 -181 66 -304 39 -80 125 -173 216 -234 34
-23 65 -42 68 -42 4 0 20 -9 36 -21 16 -11 29 -18 29 -14 0 3 17 -3 38 -13 38
-20 192 -70 239 -78 15 -3 30 -7 35 -10 5 -3 22 -7 39 -9 16 -2 47 -7 69 -10
22 -3 54 -8 72 -11 82 -12 207 -18 373 -17 191 1 310 7 485 26 25 3 70 8 100
11 30 4 66 8 80 11 14 2 45 7 70 10 25 3 68 10 95 15 28 5 66 12 85 14 39 6
83 14 120 21 14 3 34 7 45 9 11 2 56 12 100 21 44 9 92 19 106 21 21 4 354 86
394 98 6 1 28 7 50 11 50 11 47 10 65 18 13 5 116 36 145 43 46 12 335 103
346 109 5 4 17 8 26 10 37 7 48 10 53 15 3 3 37 15 75 28 71 24 265 94 320
117 60 24 100 40 105 41 3 0 19 6 35 13 17 8 39 17 50 22 276 115 324 136 540
240 61 29 112 53 115 54 3 0 10 3 15 7 6 3 76 40 156 81 80 42 170 90 199 107
30 18 84 48 120 68 79 43 321 192 336 207 6 5 27 19 47 30 20 11 37 23 37 27
0 5 5 8 10 8 10 0 68 37 80 51 3 3 28 21 55 39 28 19 52 37 53 42 2 4 9 8 16
8 6 0 19 8 27 18 9 9 26 24 39 32 13 8 30 22 39 30 9 8 32 26 51 40 19 13 37
27 40 30 3 3 32 28 65 55 33 28 78 66 99 85 59 52 301 294 317 317 8 11 33 42
56 69 153 181 324 482 358 631 2 10 11 43 19 73 8 30 17 69 20 85 13 66 26
262 18 269 -2 3 -6 29 -8 58 -4 58 -6 71 -24 138 -52 200 -170 380 -342 521
-29 24 -55 46 -58 50 -8 8 -99 68 -155 102 -72 44 -219 118 -300 152 -38 16
-72 31 -75 34 -3 3 -16 8 -30 9 -14 2 -29 7 -35 12 -16 12 -459 160 -495 164
-8 2 -22 5 -30 8 -14 5 -53 17 -185 53 -27 8 -84 24 -125 36 -41 13 -79 23
-85 24 -25 2 -81 18 -90 25 -5 5 -14 9 -20 10 -69 9 -447 128 -607 191 -115
46 -247 107 -268 125 -8 7 -19 14 -25 15 -41 9 -180 124 -240 199 -83 104
-102 273 -46 415 32 82 115 225 168 290 134 163 316 342 463 455 18 14 41 32
51 41 10 8 28 23 41 32 13 9 55 41 94 69 40 29 82 60 94 68 12 8 28 20 34 26
6 6 16 13 21 15 6 2 69 43 140 90 72 47 146 94 165 105 19 10 37 22 38 27 2 4
7 7 11 7 5 0 48 24 97 53 49 30 128 74 176 100 47 25 98 53 112 62 14 10 26
13 26 9 0 -5 4 -4 8 2 8 13 274 144 291 144 6 0 11 5 11 10 0 6 4 10 9 10 5 0
31 10 58 22 26 11 53 22 58 23 6 2 39 16 75 33 36 16 76 33 90 37 14 4 34 14
45 21 11 8 29 14 42 14 12 0 25 5 28 10 4 6 11 8 16 5 5 -4 9 -2 9 4 0 5 15
13 33 17 41 10 39 9 57 17 60 26 320 107 390 121 209 43 214 44 330 53 108 8
330 8 375 0 77 -15 93 -19 138 -34 88 -31 165 -121 154 -179 -2 -13 -1 -24 3
-24 16 0 -8 -130 -39 -208 -37 -94 -110 -221 -150 -263 -9 -9 -23 -26 -31 -39
-41 -61 -213 -240 -315 -330 -105 -91 -279 -230 -289 -230 -3 0 -17 -11 -32
-25 -15 -14 -33 -25 -40 -25 -8 0 -14 -3 -14 -7 0 -5 -21 -21 -48 -38 -26 -16
-49 -32 -52 -35 -3 -4 -34 -24 -70 -46 -36 -21 -67 -41 -70 -45 -3 -3 -32 -20
-65 -38 -33 -18 -64 -36 -70 -41 -22 -17 -207 -111 -302 -154 -145 -65 -256
-99 -330 -100 -71 -1 -85 8 -85 55 0 31 3 51 17 118 8 40 38 114 62 153 13 21
23 40 23 43 0 3 11 18 25 32 29 33 26 41 -7 16 -30 -23 -165 -158 -201 -201
-28 -33 -122 -173 -122 -182 0 -3 -13 -34 -30 -70 -16 -36 -30 -69 -31 -75 -2
-5 -5 -20 -8 -32 -3 -13 -8 -33 -12 -45 -20 -82 -6 -177 33 -220 46 -52 165
-103 259 -112 27 -2 51 -5 54 -6 3 -1 9 -2 13 -1 5 1 46 4 90 7 45 2 89 6 97
8 8 1 36 6 63 11 26 4 50 11 52 16 3 4 11 6 18 3 7 -2 45 7 85 20 39 14 72 22
72 19 0 -3 7 0 15 7 8 7 15 9 15 5 0 -4 6 -3 13 2 6 5 41 20 77 33 83 31 380
179 425 213 6 4 53 35 105 69 52 34 97 64 100 68 3 3 21 17 40 30 19 13 37 27
40 30 3 3 23 19 45 36 22 16 45 34 51 39 6 6 41 37 79 70 85 76 239 233 295
302 91 113 139 179 192 268 33 54 101 183 104 195 1 8 24 64 34 85 5 11 19 56
30 100 12 44 24 87 27 95 7 21 12 83 12 175 1 102 -3 147 -20 215 -7 30 -12
58 -11 63 1 4 -3 7 -8 7 -5 0 -9 3 -8 8 5 25 -54 123 -114 187 -21 22 -38 43
-38 48 0 4 -6 7 -13 7 -7 0 -23 10 -37 23 -33 30 -223 119 -255 118 -2 0 -19
5 -37 10 -189 57 -624 69 -898 24 -14 -2 -45 -7 -70 -10 -25 -3 -52 -8 -60
-10 -8 -2 -31 -7 -50 -10 -19 -3 -73 -15 -120 -26 -47 -11 -96 -23 -109 -25
-14 -3 -28 -7 -31 -9 -4 -2 -22 -7 -41 -10 -19 -3 -63 -15 -99 -26 -36 -11
-76 -23 -89 -25 -84 -17 -584 -200 -744 -273 -34 -16 -84 -39 -112 -51 -176
-78 -545 -273 -553 -292 -2 -4 -8 -8 -13 -8 -18 0 -392 -250 -419 -280 -3 -3
-25 -21 -50 -40 -196 -149 -390 -353 -540 -569 -41 -59 -130 -232 -145 -281
-1 -3 -11 -36 -24 -75 -12 -38 -24 -81 -26 -95 -2 -14 -7 -43 -11 -65 -10 -53
-11 -207 -1 -270 4 -27 26 -87 49 -133 84 -172 280 -321 573 -437 39 -15 79
-31 90 -36 21 -9 113 -40 130 -44 6 -1 17 -5 25 -8 21 -8 93 -31 105 -33 9 -2
46 -11 183 -49 131 -37 169 -47 197 -52 17 -3 37 -9 46 -14 9 -5 32 -11 50
-13 38 -6 74 -14 74 -16 0 -1 7 -3 15 -5 8 -2 25 -6 38 -9 12 -3 32 -9 45 -12
12 -3 29 -7 37 -9 8 -2 15 -4 15 -5 0 -2 24 -7 60 -15 11 -2 62 -15 113 -28
50 -14 92 -22 92 -18 0 3 4 1 8 -4 6 -9 38 -19 117 -39 6 -2 19 -6 30 -10 34
-13 49 -18 74 -22 13 -3 49 -14 80 -25 31 -12 62 -21 69 -22 6 0 12 -5 12 -10
0 -6 3 -8 6 -5 7 7 160 -46 279 -98 17 -7 35 -14 40 -15 28 -7 259 -131 315
-168 212 -142 325 -284 363 -456 13 -57 14 -173 3 -224 -19 -87 -91 -252 -133
-307 -12 -17 -23 -34 -23 -38 0 -4 -5 -12 -10 -19 -6 -7 -27 -35 -48 -63 -86
-118 -276 -318 -397 -419 -33 -27 -64 -55 -70 -61 -5 -6 -44 -38 -85 -70 -41
-32 -77 -61 -80 -64 -8 -8 -149 -112 -205 -151 -27 -19 -52 -37 -55 -40 -3 -3
-59 -41 -125 -84 -66 -43 -122 -82 -123 -87 -2 -4 -7 -6 -12 -3 -5 3 -14 0
-22 -7 -17 -17 -96 -68 -103 -68 -4 0 -25 -13 -48 -28 -23 -16 -116 -70 -207
-121 -91 -51 -172 -97 -180 -102 -8 -5 -55 -30 -105 -55 -49 -26 -93 -51 -96
-56 -3 -5 -8 -8 -10 -7 -2 2 -78 -33 -169 -78 -192 -95 -380 -183 -388 -183
-4 0 -29 -11 -57 -24 -66 -32 -129 -60 -135 -61 -3 0 -27 -11 -54 -23 -27 -12
-51 -22 -53 -22 -3 0 -19 -7 -36 -14 -69 -32 -452 -180 -492 -190 -5 -2 -18
-6 -27 -9 -10 -4 -26 -10 -35 -14 -10 -3 -22 -7 -28 -9 -5 -2 -68 -23 -140
-48 -168 -57 -295 -96 -312 -96 -7 0 -21 -4 -31 -10 -24 -13 -388 -111 -462
-124 -14 -3 -25 -5 -25 -6 0 -1 -7 -3 -15 -5 -112 -22 -141 -28 -175 -37 l-40
-10 31 -17 c35 -18 109 -78 79 -63 -11 6 -24 11 -30 12 -14 3 -57 19 -80 30
-11 5 -30 12 -43 15 -32 9 -16 20 33 24 26 2 -41 42 -225 131 -184 90 -163 81
-310 135 -69 26 -134 50 -145 55 -30 13 -307 100 -330 103 -11 2 -47 12 -80
22 -33 10 -60 17 -60 16 0 -1 -13 2 -28 8 -33 13 -83 24 -116 25 -19 1 -30
-10 -52 -52 -16 -28 -29 -54 -29 -57 -1 -13 -15 -41 -23 -46 -5 -4 -25 -3 -46
2 -20 4 -54 10 -76 13 -22 2 -40 5 -40 6 0 3 -40 10 -85 14 -25 3 -56 8 -70
11 -14 4 -38 6 -53 6 -36 0 -43 19 -21 61 10 18 17 36 16 40 -1 5 2 8 8 8 5 0
10 6 10 13 0 6 9 23 20 37 23 29 25 46 8 48 -7 0 -24 3 -38 6 -48 11 -75 16
-120 22 -25 3 -48 8 -51 10 -4 2 -24 6 -45 9 -22 4 -47 8 -56 11 -9 3 -40 7
-69 10 -29 3 -60 9 -69 14 -10 5 -19 7 -22 5 -2 -3 -42 2 -89 10 -100 16 -158
25 -274 40 -27 3 -61 8 -75 10 -14 2 -47 7 -75 10 -27 3 -66 8 -86 10 -20 3
-56 7 -80 9 -24 3 -69 7 -99 11 -89 10 -141 15 -213 19 -37 3 -89 7 -115 10
-115 13 -196 19 -422 31 -324 16 -768 21 -1040 10 -74 -3 -170 -6 -212 -7 -43
-2 -78 -5 -78 -8 0 -3 -28 -5 -63 -6 -58 0 -176 -10 -257 -20 -19 -2 -57 -7
-85 -10 -27 -3 -61 -6 -75 -8 -14 -2 -50 -7 -80 -11 -30 -4 -70 -9 -89 -11
-19 -2 -57 -8 -85 -13 -28 -6 -69 -13 -91 -15 -22 -3 -40 -5 -40 -6 0 -2 -38
-9 -78 -13 -42 -5 -48 4 -14 21 26 14 57 33 73 47 7 6 24 19 39 30 14 11 41
32 59 48 19 15 37 27 40 27 4 0 17 10 30 23 13 12 41 36 61 52 62 50 184 153
233 198 25 23 73 67 106 97 243 220 663 647 952 967 16 17 57 63 92 101 35 39
76 85 90 102 15 18 40 47 57 64 16 18 53 59 80 91 28 32 55 63 60 69 6 6 35
40 65 76 30 36 61 71 68 78 7 8 24 29 38 48 15 19 33 34 40 34 8 0 22 4 32 9
15 9 228 75 277 86 19 4 39 11 90 31 27 10 26 9 60 19 17 4 39 13 50 18 11 6
25 12 30 13 12 2 149 52 185 67 14 6 27 11 30 11 6 1 74 29 125 51 17 7 71 30
120 50 86 35 133 57 279 125 35 17 69 30 75 30 6 0 11 5 11 10 0 6 5 10 10 10
19 0 354 169 358 182 2 4 12 8 23 8 10 0 19 5 19 10 0 6 4 10 9 10 10 0 153
80 276 155 27 16 57 35 66 40 148 86 474 305 633 425 76 58 146 110 154 115 8
6 31 25 51 43 19 17 41 32 48 32 7 0 13 4 13 9 0 4 27 29 60 55 33 26 65 52
72 59 7 7 33 29 58 51 206 178 399 370 615 610 56 63 118 139 193 240 46 61
90 119 98 129 7 9 14 22 14 27 0 6 5 10 10 10 6 0 10 7 10 15 0 8 5 15 10 15
6 0 10 6 10 14 0 8 4 16 8 18 24 10 264 455 277 513 1 5 5 17 8 25 14 37 59
167 63 183 2 9 6 25 8 35 21 85 36 168 32 179 -3 7 -2 13 2 13 8 0 16 87 14
160 -3 194 -70 350 -197 461 -88 76 -214 137 -320 154 -11 2 -38 7 -60 11 -45
7 -204 12 -210 6z m223 -224 c51 -41 67 -56 87 -88 58 -93 73 -232 41 -391 -8
-36 -76 -242 -85 -254 -4 -5 -13 -29 -21 -52 -7 -24 -17 -43 -22 -43 -4 0 -8
-6 -8 -14 0 -15 -97 -206 -136 -268 -13 -21 -24 -40 -24 -42 0 -6 -45 -75 -60
-93 -6 -7 -7 -13 -3 -13 4 0 3 -4 -2 -8 -6 -4 -33 -41 -60 -82 -51 -80 -258
-360 -300 -407 -13 -15 -28 -33 -32 -38 -74 -97 -250 -289 -424 -464 -163
-164 -263 -256 -474 -436 -13 -11 -45 -36 -71 -55 -25 -19 -54 -42 -63 -51 -9
-9 -70 -56 -136 -104 -66 -49 -139 -103 -161 -119 -52 -38 -49 -36 -214 -146
-74 -49 -141 -90 -147 -90 -7 0 -13 -4 -13 -10 0 -5 -4 -10 -10 -10 -5 0 -41
-20 -80 -45 -39 -25 -74 -45 -79 -45 -5 0 -16 -6 -23 -13 -7 -7 -35 -24 -63
-38 -27 -15 -79 -43 -115 -62 -66 -36 -271 -140 -280 -142 -3 0 -36 -16 -75
-34 -77 -36 -350 -153 -365 -155 -5 -1 -88 -31 -120 -43 -8 -4 -18 -7 -22 -8
-5 -2 -9 -3 -10 -5 -2 -1 -10 -3 -18 -5 -8 -2 -32 -11 -54 -20 -21 -9 -40 -15
-42 -13 -1 2 10 19 26 38 106 129 411 503 440 540 19 25 40 50 46 55 6 6 46
55 90 110 43 55 82 102 86 103 5 2 8 10 8 17 0 7 4 15 8 17 5 2 29 29 55 61
26 32 52 64 57 70 6 7 31 39 58 72 26 33 52 65 57 71 6 6 21 26 35 44 14 18
39 50 55 70 17 20 44 53 60 75 17 21 44 54 60 75 17 20 44 53 60 74 17 22 35
44 40 50 6 6 35 43 65 81 30 39 57 72 60 75 3 3 77 95 165 205 87 110 162 202
165 205 3 3 55 66 115 140 60 74 114 140 120 146 11 13 20 24 80 99 22 28 42
52 45 55 3 3 52 61 110 130 57 69 109 130 115 136 5 6 33 37 60 69 99 113 130
150 155 176 14 15 54 60 90 101 99 111 426 437 505 502 127 105 210 166 225
166 5 0 10 3 10 8 0 12 139 75 193 87 56 13 139 4 165 -17z m-1490 -6904 c57
-10 69 -12 92 -18 14 -3 37 -8 53 -10 15 -3 35 -7 45 -10 9 -3 28 -7 42 -10
14 -3 36 -7 50 -11 27 -6 52 -11 88 -19 13 -3 33 -8 44 -12 11 -3 30 -7 41 -9
12 -1 42 -8 67 -15 59 -16 82 -21 98 -22 6 -1 12 -4 12 -8 0 -3 8 -6 18 -7 19
-1 38 -5 102 -24 25 -7 48 -13 53 -15 4 -1 8 -2 10 -4 1 -1 10 -3 20 -5 37 -7
342 -107 353 -116 6 -5 14 -6 17 -2 4 3 7 2 7 -4 0 -5 -39 -15 -87 -22 -49 -7
-104 -15 -123 -18 -19 -3 -51 -7 -70 -8 -19 -2 -35 -4 -35 -5 0 -3 -151 -12
-247 -13 -54 -1 -98 -4 -98 -7 0 -3 -16 -5 -35 -5 -19 0 -35 2 -35 5 0 5 -72
4 -95 0 -6 -2 -12 -1 -15 0 -3 1 -18 3 -35 5 -118 12 -147 16 -199 30 -86 23
-166 70 -201 118 -17 23 -30 44 -31 47 0 3 -4 12 -8 21 -10 23 -12 97 -3 148
l8 43 37 -7 c20 -4 47 -9 60 -11z"/>
<path d="M11326 7442 c-2 -1 -25 -5 -52 -8 -51 -5 -81 -10 -124 -19 -14 -3
-36 -7 -50 -10 -55 -11 -72 -14 -90 -20 -10 -3 -27 -7 -37 -9 -30 -6 -255 -74
-303 -91 -25 -9 -52 -18 -60 -20 -13 -3 -75 -26 -135 -50 -11 -4 -24 -9 -30
-10 -25 -7 -352 -145 -535 -227 -116 -52 -495 -242 -498 -249 -2 -5 -12 -9
-23 -9 -10 0 -19 -4 -19 -10 0 -5 -18 -15 -40 -21 -22 -7 -40 -16 -40 -21 0
-4 -4 -8 -9 -8 -8 0 -217 -114 -266 -145 -11 -6 -24 -12 -29 -13 -5 0 -12 -4
-15 -9 -3 -5 -34 -25 -68 -44 -35 -18 -63 -37 -63 -42 0 -4 -4 -6 -9 -2 -5 3
-15 -1 -23 -8 -7 -7 -44 -32 -83 -56 -38 -23 -104 -64 -145 -92 -41 -27 -82
-52 -90 -56 -8 -3 -22 -12 -30 -20 -8 -7 -53 -39 -100 -70 -74 -49 -306 -215
-350 -250 -8 -6 -64 -51 -125 -99 -60 -48 -112 -90 -115 -94 -3 -3 -36 -32
-75 -65 -82 -71 -290 -277 -359 -355 -64 -73 -189 -240 -184 -245 4 -4 118
-30 178 -41 14 -3 67 -15 118 -28 l92 -23 64 96 c36 53 75 108 88 123 13 15
37 43 53 64 98 122 535 554 561 554 2 0 17 12 32 28 15 15 50 45 77 67 28 22
55 44 62 50 6 5 23 19 37 30 14 11 36 28 48 39 20 16 204 155 283 213 93 69
539 363 550 363 7 0 15 4 17 8 2 4 25 21 52 37 27 17 65 40 85 52 53 33 244
141 336 190 87 47 442 223 449 223 2 0 46 19 97 43 103 48 180 82 189 83 3 0
19 7 35 14 17 7 32 14 35 15 3 1 14 5 25 10 110 43 215 81 345 125 85 29 162
55 170 58 8 3 20 6 25 6 6 1 36 10 69 20 32 10 65 19 72 20 32 5 19 11 -22 11
-25 0 -47 -1 -48 -3z"/>
</g>
</svg>
