<svg width="47" height="27" viewBox="0 0 47 27" version="1.1" xmlns="http://www.w3.org/2000/svg" xmlns:xlink="http://www.w3.org/1999/xlink"><title>LS</title><desc>Created with Sketch.</desc><g id="Page-1" stroke="none" stroke-width="1" fill="none" fill-rule="evenodd"><path d="M27.5881423,23.7671099 C24.9517994,22.6843263 20.90313,21.9075467 16.6426116,21.9075467 C15.3715177,21.9075467 14.1004238,21.978163 12.8293299,22.1193956 C5.15568895,23.0374079 1.03640318,26.1680651 2.11918687,26.9448447 C1.62487258,26.9448447 0.447933784,26.1209875 0.330239905,25.0852814 C0.212546026,23.8377263 2.94304402,22.6137099 6.02662365,21.8133916 C8.05095838,20.401065 10.5460686,17.5293344 12.5468646,15.1989955 C11.6053135,15.3166894 10.6873013,15.3873058 9.76928901,15.3873058 C5.72061957,15.3873058 2.42519095,13.7395914 2.16626442,11.5975628 C2.11918687,11.2915588 2.40165218,10.7030894 2.73119504,10.3029302 C3.41381954,9.5026118 4.520142,9.45553424 4.68491343,9.54968935 C4.26121547,9.690922 3.76690118,10.0910812 3.7433624,10.5147792 C3.67274607,12.1154159 6.47386039,14.3280608 10.8285339,14.3280608 C11.2522319,14.3280608 11.6994686,14.3045221 12.1702441,14.2574445 C12.5939421,14.210367 12.9941013,14.1632894 13.4177993,14.0926731 C18.0313993,8.30213423 22.998081,0.74618719 27.2115219,0.652032087 C28.5532321,0.628493311 29.612477,1.45235046 29.4241668,2.95883212 C29.0004689,7.00750156 22.6685382,12.5391139 15.3479789,14.5869874 C13.1117952,17.246869 10.4754523,20.0009058 8.56881144,21.2719997 C9.74575023,21.0601507 10.922689,20.9189181 11.9348564,20.8718405 C12.4762482,20.8483017 13.0176401,20.824763 13.6061095,20.824763 C18.7140238,20.824763 25.3048811,21.9310854 27.5881423,23.7671099 Z M27.1173668,1.31111781 C25.1871872,1.89958721 20.90313,7.90197504 16.383685,13.3394323 C23.9631708,10.7972445 28.3649219,4.15930968 28.1530729,2.15851374 C28.0824566,1.54650557 27.729375,1.1228076 27.1173668,1.31111781 Z M22.791664,22.7784814 C22.791664,23.6964936 24.0156804,23.7200324 24.7689212,23.7200324 C30.4417662,23.7200324 41.9286888,18.0471874 41.9286888,14.4928323 C41.9286888,13.0334282 39.9749704,12.1624935 37.6681704,11.5269465 C34.8435173,10.7501669 31.6422438,10.3264689 31.6422438,8.25505668 C31.6422438,4.30054234 39.2452683,1.14634638 42.6819296,1.0286525 C44.8239582,0.958036172 46.2598235,1.47588924 46.2362848,3.28837498 C46.1892072,6.0894893 42.0934602,9.12599138 39.59835,9.12599138 C39.1275745,9.12599138 38.4214112,8.93768118 38.4214112,8.41982811 C38.4214112,7.4547383 39.3394234,6.44257094 39.810199,6.16010563 C39.4571173,6.56026482 39.3158847,7.05457911 39.3158847,7.38412197 C39.3158847,7.52535463 39.4571173,7.52535463 39.59835,7.52535463 C40.5634398,7.52535463 45.1535011,4.88901173 45.4595052,2.74698313 C45.577199,1.99374231 44.9416521,1.78189333 44.0471786,1.78189333 C43.7882521,1.78189333 43.482248,1.8054321 43.1762439,1.82897088 C40.1632806,2.15851374 33.2428805,6.04241175 33.2428805,8.46690566 C33.2428805,9.83215466 35.502603,10.4206241 37.8800193,11.0797098 C40.539901,11.8094118 43.2939378,12.6803465 43.2939378,15.2931506 C43.2939378,20.4481426 31.5716274,25.4854406 25.1455416,25.4854406 C23.5919824,25.4854406 21.3322599,25.0382038 21.3322599,23.1786405 C21.3322599,19.6949017 31.9717866,14.0691343 35.0082887,14.1397506 C28.7705131,15.8345425 22.791664,21.0366119 22.791664,22.7784814 Z" id="LS" fill="#6A1B9A"/></g></svg>